HIERARCHY
ROOT Hips
{
  OFFSET 265.287 66.7526 -254.649
  CHANNELS 6 Xposition Yposition Zposition Zrotation Xrotation Yrotation
  JOINT LeftUpLeg
  {
    OFFSET 8.64259 1.95398 -2.38835
    CHANNELS 3 Zrotation Xrotation Yrotation
    JOINT LeftLeg
    {
      OFFSET 43.7702 0 0
      CHANNELS 3 Zrotation Xrotation Yrotation
      JOINT LeftFoot
      {
        OFFSET 40.6238 0 0
        CHANNELS 3 Zrotation Xrotation Yrotation
        JOINT LeftToeBase
        {
          OFFSET 12.7242 0 0
          CHANNELS 3 Zrotation Xrotation Yrotation
          End Site
          {
            OFFSET 0 0 0
          }
        }
      }
    }
  }
  JOINT RightUpLeg
  {
    OFFSET -8.2249 1.95398 -2.59336
    CHANNELS 3 Zrotation Xrotation Yrotation
    JOINT RightLeg
    {
      OFFSET 43.5653 0 0
      CHANNELS 3 Zrotation Xrotation Yrotation
      JOINT RightFoot
      {
        OFFSET 40.6238 0 0
        CHANNELS 3 Zrotation Xrotation Yrotation
        JOINT RightToeBase
        {
          OFFSET 12.7242 0 0
          CHANNELS 3 Zrotation Xrotation Yrotation
          End Site
          {
            OFFSET 0 0 0
          }
        }
      }
    }
  }
  JOINT Spine
  {
    OFFSET 0.165834 0.87714 6.61349
    CHANNELS 3 Zrotation Xrotation Yrotation
    JOINT Spine1
    {
      OFFSET 7.38963 1.71661e-005 0
      CHANNELS 3 Zrotation Xrotation Yrotation
      JOINT Spine2
      {
        OFFSET 11.9445 1.14441e-005 0
        CHANNELS 3 Zrotation Xrotation Yrotation
        JOINT Spine3
        {
          OFFSET 14.7254 4.19617e-005 0
          CHANNELS 3 Zrotation Xrotation Yrotation
          JOINT Spine4
          {
            OFFSET 10.9679 0 0
            CHANNELS 3 Zrotation Xrotation Yrotation
            JOINT RightShoulder
            {
              OFFSET 2.46616 -1.6653 3.69651
              CHANNELS 3 Zrotation Xrotation Yrotation
              JOINT RightArm
              {
                OFFSET 13.0012 0 0
                CHANNELS 3 Zrotation Xrotation Yrotation
                JOINT RightForeArm
                {
                  OFFSET 28.7848 1.52588e-005 0
                  CHANNELS 3 Zrotation Xrotation Yrotation
                  JOINT RightHand
                  {
                    OFFSET 26.5688 1.52588e-005 0
                    CHANNELS 3 Zrotation Xrotation Yrotation
                    End Site
                    {
                      OFFSET 0 0 0
                    }
                  }
                }
              }
            }
            JOINT LeftShoulder
            {
              OFFSET 2.38034 -1.29275 -3.7523
              CHANNELS 3 Zrotation Xrotation Yrotation
              JOINT LeftArm
              {
                OFFSET 16.3182 6.10351e-005 0
                CHANNELS 3 Zrotation Xrotation Yrotation
                JOINT LeftForeArm
                {
                  OFFSET 27.0901 0 0
                  CHANNELS 3 Zrotation Xrotation Yrotation
                  JOINT LeftHand
                  {
                    OFFSET 24.5451 1.52588e-005 0
                    CHANNELS 3 Zrotation Xrotation Yrotation
                    End Site
                    {
                      OFFSET 0 0 0
                    }
                  }
                }
              }
            }
            JOINT Neck
            {
              OFFSET 5.0226 -0.0266342 0
              CHANNELS 3 Zrotation Xrotation Yrotation
              JOINT Head
              {
                OFFSET 6.69364 2.86102e-005 0
                CHANNELS 3 Zrotation Xrotation Yrotation
                End Site
                {
                  OFFSET 0 0 0
                }
              }
            }
          }
        }
      }
    }
  }
}
MOTION
Frames:	6
Frame Time:	0.0416667
-0.390999 34.6577 -36.2267 167.392 -66.8286 167.116 154.812 70.0411 130.281 -154.511 18.593 0.228618 87.102 7.41061 -2.50289 45.8136 -4.89206 7.52694 -156.876 67.1819 35.894 -153.09 -21.1669 -3.20269 90.5097 -10.6124 13.9928 45.068 -2.31919 0.965929 0.251613 13.2595 -90.6097 0.354749 0.275152 -1.17371 -11.3167 0.223246 -1.18469 -33.8485 0.615163 -1.04505 -13.8359 0.615171 -1.04505 98.654 -29.7302 -89.4087 -8.46709 -22.9432 -62.6766 -28.2094 -8.03098 -77.1496 -44.2062 -6.43033 10.8375 -84.3587 -27.3868 83.5045 -10.1993 19.156 -66.8149 24.5797 3.60375 -64.0161 8.28405 0.165953 -1.62039 18.4851 -3.32789 14.0777 14.708 -9.27675 -11.7491 
-0.547929 34.6199 -36.153 167.311 -66.685 166.919 154.936 69.7508 130.414 -154.564 18.6616 0.287573 87.5005 7.57648 -2.67693 43.415 -4.48991 1.19218 -157.2 66.3559 36.4318 -152.925 -20.4176 -3.08853 91.9585 -10.2753 16.154 43.9905 -2.22851 -1.58977 0.239602 13.2825 -90.6091 0.308546 0.251694 -1.17328 -11.3629 0.199812 -1.18322 -33.8948 0.592655 -1.04207 -13.8821 0.592657 -1.04207 98.6212 -29.6278 -89.4882 -8.2004 -22.9953 -62.5119 -28.2453 -8.06154 -77.1791 -44.6235 -6.5201 10.8924 -84.4915 -27.5969 83.2787 -10.0327 19.0348 -67.0015 24.1094 3.3677 -63.9081 11.3506 0.312716 -0.992862 19.0647 -3.25218 12.8166 13.7281 -8.50486 -9.94418 
-0.542056 34.5716 -36.1355 167.16 -66.5954 166.493 155.455 69.4289 129.684 -154.567 19.9584 0.207503 87.7976 7.82083 -1.97314 43.5592 -4.49637 2.2909 -156.336 66.0138 35.4214 -153.075 -20.1213 -3.08132 92.2981 -10.0997 16.8391 43.521 -2.15586 -1.72474 0.207694 13.2891 -90.5926 0.295135 0.194223 -1.14382 -11.3763 0.143706 -1.15126 -33.9082 0.52899 -1.03259 -13.8955 0.528995 -1.03259 98.6539 -29.4828 -89.4374 -8.12985 -22.9872 -62.585 -28.887 -8.02889 -77.2476 -42.7019 -6.36802 11.2845 -84.4568 -27.5947 83.3485 -11.1823 19.1704 -66.5637 24.2379 3.51038 -63.7717 10.3561 0.209128 -1.83293 18.9013 -3.11452 13.4705 13.5316 -8.63562 -10.5872 
-0.60518 34.5352 -36.2126 167.042 -66.3639 166.266 154.466 69.061 130.59 -154.464 23.6201 -0.00160272 87.089 8.35433 1.0693 43.856 -4.56438 2.88195 -156.472 65.9956 35.5045 -153.113 -20.2133 -3.08211 92.1737 -10.149 16.5852 43.6061 -2.16914 -1.71968 0.194407 13.3146 -90.5924 0.243998 0.168051 -1.1444 -11.4275 0.117527 -1.15069 -33.9592 0.504205 -1.04101 -13.9466 0.504203 -1.04101 98.6729 -29.4351 -89.4034 -8.26362 -22.9511 -62.6835 -27.8498 -8.15746 -76.8485 -47.5941 -6.68316 10.1773 -84.4465 -27.5595 83.3621 -11.0692 19.1454 -66.6202 25.2845 3.93321 -64.0498 6.63756 0.00763328 -3.09697 18.684 -3.0912 13.5371 13.5073 -8.62372 -10.6949 
-0.631495 34.5156 -36.2761 166.963 -66.3574 166.164 153.986 69.1776 131.052 -154.398 23.495 0.0100346 86.9109 8.12517 0.685384 43.9487 -4.58648 3.00074 -156.035 65.9534 35.1629 -153.148 -20.0433 -3.0492 92.3113 -10.1069 16.8264 43.2116 -2.10597 -1.69031 0.197116 13.313 -90.591 0.247243 0.173964 -1.14136 -11.4242 0.123571 -1.14792 -33.956 0.508927 -1.03634 -13.9434 0.508938 -1.03632 98.7191 -29.3102 -89.3217 -8.20167 -22.9861 -62.6163 -26.5828 -7.7193 -76.4486 -48.1369 -5.73224 7.82593 -84.4158 -27.5941 83.4314 -10.8434 19.1931 -66.8366 25.4428 4.06779 -63.928 6.33197 -0.016841 -3.40165 18.6112 -3.09506 13.7164 13.372 -8.69449 -10.9235 
-0.673065 34.5179 -36.3374 167.117 -66.1649 166.147 154.894 69.1741 130.106 -154.41 23.4802 0.0333498 86.9576 8.26115 0.959825 43.9943 -4.59338 3.19409 -156.222 65.9384 35.2958 -153.173 -20.3993 -3.04948 92.2572 -10.3995 16.1678 43.5358 -2.16071 -1.87914 0.187489 13.325 -90.5711 0.223442 0.162273 -1.10307 -11.448 0.113578 -1.10915 -33.98 0.486276 -1.00332 -13.9673 0.48628 -1.00332 98.6215 -29.2224 -89.5347 -7.88878 -23.0061 -62.3978 -26.7602 -7.81939 -76.6298 -48.0493 -5.90991 8.25276 -84.4838 -27.6562 83.3067 -11.0656 19.3012 -66.716 24.9219 3.83173 -63.7507 7.74563 0.103748 -2.56381 18.2269 -3.18588 13.8363 13.449 -8.8071 -11.0974 
